<svg xmlns="http://www.w3.org/2000/svg" width="420" height="88" viewBox="0 0 420 88" role="img" aria-labelledby="title desc">
  <title id="title">EJS checkPAD logo</title>
  <desc id="desc">Turquoise aircraft icon with EJS checkPAD wordmark</desc>
  <g fill="none" fill-rule="evenodd">
    <g transform="translate(8 14)">
      <path
        d="M44.5 3c2.5 0 4.8 1.5 5.8 3.8.9 2.1.6 4.4-.8 6.2L37.4 27l9.7 12c1.6 2 .8 5-1.5 6.1l-2.4 1.2c-1.6.8-3.5.4-4.7-.9L28.2 34.8l-8.1 9.4c-1.2 1.4-3.2 1.8-4.8 1l-2.3-1.1c-2.3-1.1-3.1-4-1.5-6l8.6-10.7-12.8-4.6c-2.3-.8-3.6-3.2-3-5.5l.7-2.5c.6-2.3 3-3.8 5.4-3.4L24 13.8l14.7-9.9c1.1-.7 2.4-1 3.8-1Z"
        fill="#06B6D4"
      />
      <circle cx="18.5" cy="15.8" r="3.2" fill="#ffffff" opacity="0.95" />
    </g>
    <g transform="translate(86 20)" fill="#111827">
      <text
        font-family="Arial, Helvetica, sans-serif"
        font-size="36"
        font-weight="700"
        letter-spacing="0"
      >
        <tspan x="0" y="35">EJS check</tspan>
        <tspan font-style="italic">PAD</tspan>
      </text>
    </g>
  </g>
</svg>
